<svg width="80" height="80" fill="none" xmlns="http://www.w3.org/2000/svg"><path d="M29.96 40l6.583 6.667L49.71 33.333" stroke="#2FB33C" stroke-width="2" stroke-linecap="round" stroke-linejoin="round"/><path d="M39.835 10c7.689 6.889 17.724 10.475 27.98 10a40.485 40.485 0 011.343 15.864 40.353 40.353 0 01-4.874 15.138 39.857 39.857 0 01-10.32 12.013A39.3 39.3 0 0139.834 70a39.299 39.299 0 01-14.128-6.985 39.855 39.855 0 01-10.32-12.013 40.355 40.355 0 01-4.874-15.138A40.486 40.486 0 0111.856 20c10.255.475 20.29-3.111 27.979-10z" stroke="#2F99B3" stroke-width="3" stroke-linecap="round" stroke-linejoin="round"/></svg>